HIERARCHY
ROOT Hips
{
	OFFSET 0.000000 0.000000 0.000000
	CHANNELS 6 Xposition Yposition Zposition Xrotation Yrotation Zrotation
	JOINT LeftUpLeg_virtual
	{
		OFFSET 0.000000 0.000000 0.000000
		CHANNELS 3 Xrotation Yrotation Zrotation
		JOINT LeftUpLeg
		{
			OFFSET 13.026900 -6.336304 -1.092800
			CHANNELS 3 Xrotation Yrotation Zrotation
			JOINT LeftLeg
			{
				OFFSET 0.524474 -46.096886 9.782700
				CHANNELS 3 Xrotation Yrotation Zrotation
				JOINT LeftFoot
				{
					OFFSET -0.524474 -53.427422 -12.948200
					CHANNELS 3 Xrotation Yrotation Zrotation
					JOINT LeftToeBase
					{
						OFFSET 0.192200 -14.009700 16.364100
						CHANNELS 3 Xrotation Yrotation Zrotation
						JOINT LeftToe_End
						{
							OFFSET -1.784700 -0.561700 9.474800
							CHANNELS 3 Xrotation Yrotation Zrotation
							End Site
							{
								OFFSET 0 0 0
							}
						}
					}
				}
			}
		}
	}
	JOINT RightUpLeg_virtual
	{
		OFFSET 0.000000 0.000000 0.000000
		CHANNELS 3 Xrotation Yrotation Zrotation
		JOINT RightUpLeg
		{
			OFFSET -12.883000 -6.336304 -1.092800
			CHANNELS 3 Xrotation Yrotation Zrotation
			JOINT RightLeg
			{
				OFFSET -0.524587 -46.096825 9.782800
				CHANNELS 3 Xrotation Yrotation Zrotation
				JOINT RightFoot
				{
					OFFSET 0.524587 -53.427383 -12.948300
					CHANNELS 3 Xrotation Yrotation Zrotation
					JOINT RightToeBase
					{
						OFFSET -0.192200 -14.009700 16.364100
						CHANNELS 3 Xrotation Yrotation Zrotation
						JOINT RightToe_End
						{
							OFFSET 1.784700 -0.561700 9.474800
							CHANNELS 3 Xrotation Yrotation Zrotation
							End Site
							{
								OFFSET 0 0 0
							}
						}
					}
				}
			}
		}
	}
	JOINT Spine_virtual
	{
		OFFSET 0.000000 0.000000 0.000000
		CHANNELS 3 Xrotation Yrotation Zrotation
		JOINT Spine
		{
			OFFSET 0.072000 7.257294 -0.789700
			CHANNELS 3 Xrotation Yrotation Zrotation
			JOINT Spine1
			{
				OFFSET 0.000000 12.508769 -0.658067
				CHANNELS 3 Xrotation Yrotation Zrotation
				JOINT Spine1_split
				{
					OFFSET 0.000000 12.508769 -0.658067
					CHANNELS 3 Xrotation Yrotation Zrotation
					JOINT Spine2
					{
						OFFSET 0.000000 12.508769 -0.658067
						CHANNELS 3 Xrotation Yrotation Zrotation
						JOINT Neck_virtual
						{
							OFFSET 0.000000 0.000000 0.000000
							CHANNELS 3 Xrotation Yrotation Zrotation
							JOINT Neck
							{
								OFFSET 0.000000 14.033295 7.520400
								CHANNELS 3 Xrotation Yrotation Zrotation
								JOINT Head
								{
									OFFSET 0.000000 8.198502 5.703100
									CHANNELS 3 Xrotation Yrotation Zrotation
									JOINT HeadTop_End
									{
										OFFSET 0.000000 17.760803 13.332701
										CHANNELS 3 Xrotation Yrotation Zrotation
										End Site
										{
											OFFSET 0 0 0
										}
									}
								}
							}
						}
						JOINT LeftShoulder_virtual
						{
							OFFSET 0.000000 0.000000 0.000000
							CHANNELS 3 Xrotation Yrotation Zrotation
							JOINT LeftShoulder
							{
								OFFSET 6.292450 5.785301 -0.669000
								CHANNELS 3 Xrotation Yrotation Zrotation
								JOINT LeftShoulder_split
								{
									OFFSET 6.292450 5.785301 -0.669000
									CHANNELS 3 Xrotation Yrotation Zrotation
									JOINT LeftArm
									{
										OFFSET 13.907140 -6.093903 1.965100
										CHANNELS 3 Xrotation Yrotation Zrotation
										JOINT LeftForeArm
										{
											OFFSET 34.140198 0.000000 0.000000
											CHANNELS 3 Xrotation Yrotation Zrotation
											JOINT LeftHand
											{
												OFFSET 40.960209 0.000000 0.000000
												CHANNELS 3 Xrotation Yrotation Zrotation
												End Site
												{
													OFFSET 0 0 0
												}
											}
										}
									}
								}
							}
						}
						JOINT RightShoulder_virtual
						{
							OFFSET 0.000000 0.000000 0.000000
							CHANNELS 3 Xrotation Yrotation Zrotation
							JOINT RightShoulder
							{
								OFFSET -6.292450 5.785301 -0.669000
								CHANNELS 3 Xrotation Yrotation Zrotation
								JOINT RightShoulder_split
								{
									OFFSET -6.292450 5.785301 -0.669000
									CHANNELS 3 Xrotation Yrotation Zrotation
									JOINT RightArm
									{
										OFFSET -13.907140 -6.093903 1.965100
										CHANNELS 3 Xrotation Yrotation Zrotation
										JOINT RightForeArm
										{
											OFFSET -34.140198 0.000000 0.000000
											CHANNELS 3 Xrotation Yrotation Zrotation
											JOINT RightHand
											{
												OFFSET -40.960209 0.000000 0.000000
												CHANNELS 3 Xrotation Yrotation Zrotation
												End Site
												{
													OFFSET 0 0 0
												}
											}
										}
									}
								}
							}
						}
					}
				}
			}
		}
	}
}
MOTION
Frames: 10
Frame Time: 0.03333333
0.332795 93.183556 0.315144 0.000000 0.000000 0.000000 11.658455 6.707953 -1.201772 -55.123284 2.061539 4.272272 68.196051 7.903429 -0.569600 -17.379510 6.105546 -6.795088 -3.856611 -0.137381 0.405727 0.000000 0.000000 0.000000 11.982549 6.031211 -1.128482 -51.874081 -12.705283 -7.064367 70.276868 -5.818346 -3.894503 -21.527740 -9.070320 4.662729 0.620683 0.838101 0.276883 0.000000 0.000000 0.000000 12.050551 3.836919 -1.182567 9.009045 1.083857 1.423507 8.899449 1.876957 -0.422245 1.030456 -1.052736 0.384097 0.000000 0.000000 0.000000 9.385355 0.838929 0.056670 -10.081984 -1.395053 6.020155 -25.783109 1.222335 -7.090821 0.000000 0.000000 0.000000 9.424433 0.577618 -0.014151 3.442105 -24.648259 3.657685 -2.542834 0.227676 -3.414220 -62.897429 -24.631501 -65.065386 177.341340 -72.480881 175.795327 0.000000 0.000000 0.000000 8.469604 0.577389 0.162269 0.004648 12.244274 11.202014 0.242299 7.463981 0.788673 -62.949995 31.960706 50.636359 -178.675126 69.781297 177.971931 0.000000 0.000000 0.000000 
0.326885 93.179565 0.313248 0.000000 0.000000 0.000000 11.639686 6.684967 -1.191189 -55.119012 2.080007 4.281912 68.216159 7.902397 -0.567602 -17.379068 6.113046 -6.804743 -3.857259 -0.137708 0.402056 0.000000 0.000000 0.000000 11.962395 6.008206 -1.118591 -51.869068 -12.703519 -7.056197 70.276356 -5.807892 -3.900442 -21.536199 -9.071768 4.654973 0.617970 0.838302 0.276236 0.000000 0.000000 0.000000 12.035910 3.819988 -1.176657 9.010323 1.068452 1.434714 8.918365 1.860549 -0.416184 1.028110 -1.049625 0.383325 0.000000 0.000000 0.000000 9.404607 0.820138 0.062215 -10.084347 -1.375632 6.003663 -25.798246 1.289051 -7.109077 0.000000 0.000000 0.000000 9.447956 0.560597 -0.008598 3.442129 -24.656742 3.657277 -2.545562 0.243989 -3.393564 -62.918548 -24.577865 -65.083793 177.336218 -72.524724 175.806351 0.000000 0.000000 0.000000 8.493665 0.560131 0.167042 -0.001770 12.288962 11.173305 0.226201 7.449016 0.779818 -62.976161 31.925861 50.617921 -178.692570 69.841075 177.997107 0.000000 0.000000 0.000000 
0.321960 93.173431 0.311611 0.000000 0.000000 0.000000 11.617019 6.667815 -1.185198 -55.117550 2.095166 4.294091 68.241028 7.901085 -0.563685 -17.374408 6.123199 -6.816105 -3.857319 -0.137415 0.397252 0.000000 0.000000 0.000000 11.940923 5.983374 -1.111915 -51.863389 -12.704905 -7.045745 70.281301 -5.800566 -3.904652 -21.542886 -9.072538 4.643511 0.616402 0.838678 0.275842 0.000000 0.000000 0.000000 12.017965 3.800182 -1.171716 9.013432 1.056870 1.445440 8.933708 1.848256 -0.410103 1.019283 -1.038527 0.380551 0.000000 0.000000 0.000000 9.416444 0.805100 0.067720 -10.082475 -1.357554 5.989545 -25.803685 1.344699 -7.121243 0.000000 0.000000 0.000000 9.468461 0.546281 -0.002439 3.441552 -24.659759 3.651991 -2.560880 0.248213 -3.382328 -62.956722 -24.517039 -65.085959 177.331191 -72.576443 175.815490 0.000000 0.000000 0.000000 8.512252 0.545709 0.172566 -0.008401 12.329590 11.147174 0.215484 7.438758 0.776554 -63.029027 31.871063 50.625629 -178.693130 69.899521 178.001328 0.000000 0.000000 0.000000 
0.317747 93.165199 0.311634 0.000000 0.000000 0.000000 11.591312 6.655498 -1.179551 -55.114487 2.106317 4.301412 68.264831 7.899856 -0.557352 -17.368466 6.134767 -6.830557 -3.859038 -0.137000 0.393567 0.000000 0.000000 0.000000 11.916817 5.957534 -1.104119 -51.856784 -12.707095 -7.037250 70.295153 -5.795357 -3.907948 -21.547237 -9.071354 4.631433 0.615668 0.839285 0.275428 0.000000 0.000000 0.000000 11.995124 3.776849 -1.162670 9.016586 1.048695 1.453196 8.943765 1.839977 -0.404276 1.006179 -1.027815 0.379558 0.000000 0.000000 0.000000 9.423082 0.795241 0.072794 -10.070792 -1.343658 5.975763 -25.805544 1.374450 -7.125188 0.000000 0.000000 0.000000 9.484203 0.536098 0.004247 3.439972 -24.653943 3.648570 -2.577282 0.235349 -3.385920 -62.997970 -24.467402 -65.064122 177.332311 -72.572044 175.825011 0.000000 0.000000 0.000000 8.523921 0.535599 0.178418 -0.014523 12.358827 11.119427 0.214520 7.441349 0.785176 -63.090307 31.807194 50.668160 -178.686915 69.903250 177.996328 0.000000 0.000000 0.000000 
0.313215 93.155914 0.315453 0.000000 0.000000 0.000000 11.563705 6.645778 -1.170292 -55.104952 2.114528 4.299148 68.282774 7.898664 -0.548572 -17.363972 6.146263 -6.847652 -3.862995 -0.136888 0.392601 0.000000 0.000000 0.000000 11.890509 5.935028 -1.092321 -51.849936 -12.707779 -7.033649 70.317317 -5.790095 -3.912388 -21.549780 -9.067045 4.624158 0.614353 0.840111 0.274803 0.000000 0.000000 0.000000 11.967803 3.754318 -1.148607 9.018443 1.042592 1.455427 8.948660 1.835345 -0.399531 0.999213 -1.017361 0.379526 0.000000 0.000000 0.000000 9.425978 0.791045 0.077395 -10.051287 -1.336240 5.961183 -25.809605 1.373654 -7.121062 0.000000 0.000000 0.000000 9.493973 0.530968 0.011100 3.438583 -24.642518 3.651773 -2.586623 0.214758 -3.398968 -63.023323 -24.440309 -65.016803 177.335179 -72.491639 175.827866 0.000000 0.000000 0.000000 8.528832 0.530007 0.183871 -0.019021 12.375492 11.090235 0.217989 7.448600 0.801597 -63.147647 31.751603 50.737586 -178.677462 69.843117 177.987763 0.000000 0.000000 0.000000 
0.308445 93.146446 0.321896 0.000000 0.000000 0.000000 11.536967 6.635661 -1.156242 -55.086811 2.121468 4.286558 68.293217 7.898905 -0.538904 -17.362973 6.157314 -6.864716 -3.867096 -0.137226 0.393975 0.000000 0.000000 0.000000 11.863590 5.916807 -1.076190 -51.843301 -12.705494 -7.034990 70.344549 -5.783853 -3.919202 -21.552076 -9.059737 4.623294 0.611649 0.841057 0.273966 0.000000 0.000000 0.000000 11.939461 3.736998 -1.130805 9.019809 1.037523 1.452365 8.949739 1.833516 -0.396317 0.998761 -1.008058 0.377318 0.000000 0.000000 0.000000 9.427733 0.792007 0.081112 -10.029159 -1.335996 5.948443 -25.823005 1.344932 -7.113344 0.000000 0.000000 0.000000 9.498381 0.530489 0.016395 3.437469 -24.632150 3.661319 -2.581280 0.201249 -3.414995 -63.023119 -24.431829 -64.951424 177.341053 -72.361742 175.824915 0.000000 0.000000 0.000000 8.529387 0.529577 0.188043 -0.022367 12.381239 11.060568 0.234437 7.462112 0.815933 -63.195786 31.717223 50.815269 -178.670755 69.755814 177.982067 0.000000 0.000000 0.000000 
0.302926 93.138893 0.330387 0.000000 0.000000 0.000000 11.513387 6.625536 -1.138959 -55.063011 2.127601 4.266035 68.297466 7.901842 -0.529657 -17.365749 6.168671 -6.879018 -3.869057 -0.137463 0.395685 0.000000 0.000000 0.000000 11.839114 5.905792 -1.057922 -51.837065 -12.701070 -7.039778 70.372184 -5.777164 -3.928846 -21.556719 -9.050679 4.626700 0.607954 0.842020 0.273511 0.000000 0.000000 0.000000 11.913598 3.727077 -1.112612 9.021493 1.032952 1.445992 8.948056 1.833899 -0.394769 1.007422 -1.004150 0.376617 0.000000 0.000000 0.000000 9.429614 0.795948 0.083388 -10.012986 -1.342016 5.940108 -25.846763 1.300472 -7.106279 0.000000 0.000000 0.000000 9.499783 0.533041 0.018879 3.437062 -24.625455 3.676016 -2.559336 0.200368 -3.425629 -63.010046 -24.432898 -64.885581 177.343362 -72.230425 175.814260 0.000000 0.000000 0.000000 8.528954 0.533347 0.189912 -0.024629 12.381083 11.035366 0.254973 7.472773 0.816321 -63.240797 31.715560 50.880903 -178.664744 69.694485 177.975878 0.000000 0.000000 0.000000 
0.296319 93.133255 0.336006 0.000000 0.000000 0.000000 11.493946 6.617654 -1.122403 -55.038419 2.132659 4.242613 68.298135 7.906707 -0.520881 -17.371895 6.179271 -6.889767 -3.868074 -0.137308 0.396239 0.000000 0.000000 0.000000 11.820915 5.904241 -1.041904 -51.833472 -12.695037 -7.044900 70.396438 -5.771813 -3.940259 -21.565366 -9.042214 4.630388 0.605514 0.842697 0.273878 0.000000 0.000000 0.000000 11.893253 3.726899 -1.098639 9.025661 1.029141 1.438726 8.945099 1.836098 -0.394765 1.021337 -1.004251 0.377019 0.000000 0.000000 0.000000 9.432037 0.800916 0.084560 -10.010248 -1.351643 5.940306 -25.876636 1.255889 -7.104499 0.000000 0.000000 0.000000 9.498792 0.537068 0.018435 3.436956 -24.626003 3.688071 -2.529583 0.212919 -3.425606 -63.003051 -24.426869 -64.837838 177.337338 -72.152151 175.794630 0.000000 0.000000 0.000000 8.528720 0.538813 0.189691 -0.025812 12.379592 11.023583 0.274114 7.475061 0.804065 -63.290780 31.753829 50.921564 -178.649103 69.707265 177.957574 0.000000 0.000000 0.000000 
0.288840 93.129517 0.335728 0.000000 0.000000 0.000000 11.480687 6.614686 -1.110458 -55.019855 2.135184 4.222208 68.298135 7.911934 -0.513298 -17.378242 6.186709 -6.898591 -3.865317 -0.136506 0.394790 0.000000 0.000000 0.000000 11.810758 5.913566 -1.031807 -51.833968 -12.688550 -7.048033 70.416532 -5.769391 -3.951427 -21.578195 -9.036089 4.629881 0.607226 0.842823 0.275413 0.000000 0.000000 0.000000 11.880159 3.734318 -1.090774 9.033090 1.026637 1.433075 8.941613 1.838857 -0.395474 1.035009 -1.008613 0.376500 0.000000 0.000000 0.000000 9.435991 0.804968 0.084219 -10.023806 -1.361661 5.949870 -25.904881 1.223538 -7.111126 0.000000 0.000000 0.000000 9.496571 0.540724 0.015922 3.435354 -24.630755 3.691301 -2.504446 0.227616 -3.418844 -63.019642 -24.402748 -64.817150 177.328609 -72.149310 175.776421 0.000000 0.000000 0.000000 8.529609 0.543756 0.188217 -0.026718 12.377861 11.031257 0.292180 7.474339 0.782836 -63.344759 31.826998 50.940388 -178.624678 69.808823 177.927029 0.000000 0.000000 0.000000 
0.279905 93.126961 0.329094 0.000000 0.000000 0.000000 11.474374 6.621793 -1.105861 -55.013663 2.133677 4.208793 68.297596 7.915007 -0.507025 -17.382159 6.187826 -6.907110 -3.862382 -0.135154 0.391744 0.000000 0.000000 0.000000 11.808978 5.935393 -1.029867 -51.840081 -12.683378 -7.048637 70.432221 -5.770867 -3.960412 -21.592214 -9.033346 4.623872 0.612942 0.842331 0.277747 0.000000 0.000000 0.000000 11.875243 3.748589 -1.090106 9.043525 1.025514 1.430159 8.938276 1.840973 -0.395912 1.042980 -1.017612 0.380171 0.000000 0.000000 0.000000 9.440178 0.806677 0.083363 -10.053009 -1.368314 5.964404 -25.921802 1.214166 -7.126109 0.000000 0.000000 0.000000 9.494777 0.542230 0.013386 3.433377 -24.636766 3.686072 -2.492129 0.240644 -3.410381 -63.069543 -24.356810 -64.821480 177.314607 -72.225651 175.759837 0.000000 0.000000 0.000000 8.531346 0.545908 0.186973 -0.027851 12.377939 11.060981 0.294697 7.466692 0.764837 -63.397106 31.918171 50.945995 -178.588150 69.978191 177.881704 0.000000 0.000000 0.000000 
